<svg width="52px" height="66px" viewBox="0 0 52 66" version="1.1" xmlns="http://www.w3.org/2000/svg" xmlns:xlink="http://www.w3.org/1999/xlink">
    <g id="Page-1" stroke="none" stroke-width="1" fill="none" fill-rule="evenodd">
        <g id="00.-Homepage" transform="translate(-239.000000, -867.000000)">
            <g id="Description-by-steps" transform="translate(0.000000, 755.000000)">
                <g id="First-bloc" transform="translate(88.000000, 57.000000)">
                    <g id="Employee" transform="translate(151.000000, 55.000000)">
                        <g id="Group">
                            <path d="M12.0579274,41.5699558 C8.57579795,32.9808542 1.25910908,25.2047128 10.4644616,9.54639175 C14.2538377,3.09572901 20.0433297,-1.15758468 26.0256039,0.282768778 C32.0078781,-1.15758468 37.7973701,3.09572901 41.5867462,9.54639175 C50.7920987,25.2047128 43.4784221,32.9808542 39.9962926,41.5699558 L26.0256039,41.6023564 L12.0579274,41.5699558 Z" id="Path" fill="#596366"></path>
                            <path d="M2.4971326,54.9985272 C2.10554365,55.6200295 1.18380351,60.4212077 0.126513352,64.6156112 C0.0391588947,64.9602356 0.114464462,65.2901325 0.337368939,65.5699558 C0.560273417,65.8497791 0.870532352,65.9970545 1.23199907,65.9970545 L50.7680009,65.9970545 C51.1294676,65.9970545 51.4397266,65.8497791 51.6626311,65.5699558 C51.8885478,65.2901325 51.9608411,64.9602356 51.8734866,64.6156112 C50.8161965,60.4212077 49.8944564,55.6200295 49.4998552,54.9985272 C42.7946475,44.4064801 32.4536871,49.0309278 31.748827,36.910162 C31.748827,36.910162 28.4233331,39.3372607 25.8840294,39.3608247 C23.3417135,39.3814433 20.2481608,37.0633284 20.2481608,37.0633284 C19.5433007,49.1723122 9.20234027,44.4153166 2.4971326,54.9985272 Z" id="Path" fill="#FED298"></path>
                            <path d="M31.9295603,38.6215022 C31.8452181,38.0913108 31.7849736,37.5228277 31.748827,36.910162 C31.748827,36.910162 28.4233331,39.3372607 25.8840294,39.3608247 C23.3417135,39.3814433 20.2481608,37.0633284 20.2481608,37.0633284 C20.2120141,37.6877761 20.1487575,38.2650957 20.061403,38.8011782 C20.1276719,38.8512518 20.1909286,38.904271 20.2602097,38.9543446 L20.2571975,38.9631811 C20.4529919,39.1281296 23.4260557,41.628866 25.8840294,41.6023564 C28.3389909,41.628866 31.3120547,39.1281296 31.5078492,38.9631811 L31.5078492,38.9543446 C31.6524358,38.8453608 31.7909981,38.7334315 31.9295603,38.6215022 Z" id="Path" fill="#F0BA7D"></path>
                            <path d="M20.2571975,37.0721649 C20.4529919,37.2164948 23.4260557,39.3814433 25.8840294,39.3608247 C28.3389909,39.3814433 31.3120547,37.2164948 31.5078492,37.0721649 C35.2189075,34.9572901 38.2642646,28.7157585 37.5774778,21.9558174 C37.0141922,16.4182622 30.8873313,24.539028 26.6190118,13.1104566 C20.5795053,25.4815906 14.8412211,18.1649485 14.1875688,22.8541973 C13.4676476,28.017673 16.4346869,34.5184094 20.2571975,37.0721649 Z" id="Path" fill="#FED298"></path>
                            <path d="M2.4971326,51.7025037 C2.09349476,52.3387334 1.12657128,59.5434462 0.0271100041,64.6156112 C-0.0451833401,64.9543446 0.0331344494,65.2783505 0.256038927,65.5463918 C0.478943405,65.8173785 0.786190118,65.9587629 1.14163239,65.9587629 L50.8553554,65.9587629 C51.2107977,65.9587629 51.5180444,65.8173785 51.7409489,65.5463918 C51.9638533,65.275405 52.0451833,64.9513991 51.9698778,64.6097202 C50.8523432,59.5493373 49.7830041,52.4005891 49.4998552,51.7025037 C47.8130105,47.5346097 39.9902682,47.3608247 36.3334299,45.4403535 C30.6433413,65.622975 22.1639344,66.9985272 15.3864334,45.7378498 C11.7295951,47.6435935 5.04246075,47.7025037 2.4971326,51.7025037 Z" id="Path" fill="#FDD765"></path>
                            <path d="M17.8233216,43.7290133 C17.585356,50.0088365 18.6757806,58.904271 25.8810172,61.1782032 C19.0974917,61.455081 14.6966344,51.8969072 9.68128367,49.3932253 L17.8233216,43.7290133 Z M34.3453629,43.7290133 C34.5953774,50.0088365 33.4477206,58.904271 25.8810172,61.1782032 C33.0049238,61.455081 37.6286856,51.8969072 42.8940509,49.3932253 L34.3453629,43.7290133 Z" id="Shape" fill="#F2F2F2"></path>
                        </g>
                    </g>
                </g>
            </g>
        </g>
    </g>
</svg>
