<?xml version="1.0" encoding="utf-8"?>
<!-- Generator: Adobe Illustrator 22.0.1, SVG Export Plug-In . SVG Version: 6.00 Build 0)  -->
<svg version="1.1" id="Calque_1" xmlns="http://www.w3.org/2000/svg" xmlns:xlink="http://www.w3.org/1999/xlink" x="0px" y="0px"
	 viewBox="0 0 110 110" style="enable-background:new 0 0 110 110;" xml:space="preserve">
<style type="text/css">
	.st0{fill:url(#SVGID_1_);}
	.st1{fill:#FFFFFF;}
	.st2{fill:url(#SVGID_2_);}
	.st3{fill:url(#SVGID_3_);}
	.st4{fill:url(#SVGID_4_);}
	.st5{fill:url(#SVGID_5_);}
	.st6{fill:url(#SVGID_6_);}
	.st7{fill:url(#SVGID_7_);}
	.st8{fill:url(#SVGID_8_);}
	.st9{fill:#FBDD00;}
</style>
<g>
	<linearGradient id="SVGID_1_" gradientUnits="userSpaceOnUse" x1="-7.8277" y1="99.0037" x2="117.7524" y2="11.0716">
		<stop  offset="0.3618" style="stop-color:#006F7C"/>
		<stop  offset="0.8844" style="stop-color:#00676E"/>
	</linearGradient>
	<rect x="-0.1" class="st0" width="110.1" height="110.1"/>
	<path class="st1" d="M37.9,33.6c-0.9-1.3-1.9-2.3-2.5-2.9c-0.1-0.1-0.2-0.2-0.3-0.2c-0.9-0.8-1.8-1.5-2.5-1.8
		c-1.4-0.9-3.3-1.2-5.4-1.4c2.7,1.5,7.3,4.5,7.5,5.1v0c0.1,2.1-1.3,4.4-3.3,7.2C29.1,42.9,17,54.9,14.7,61.4
		C12.1,69,15,73.1,17.3,76.9c0.8,1.3,2,2.7,3.4,3.8c0,0,0,0,0,0c0.7,0.5,1.4,1,2.1,1.4c0,0,0,0,0,0c1.7,0.9,2.4,1.5,4.2,1.5
		c0,0,0.1,0,0.1,0c-2.8-1.4-5.5-3-7.3-4.4c-0.1-1.4,1.5-3,2.3-4.6c2.5-4.9,12.2-13.1,16.3-20.2c1.7-3,3.4-5.4,3.5-10.2
		C42.2,39.2,38.5,34.4,37.9,33.6z"/>
	<g>
		<path d="M19,54.2c-0.9,1.1-1.6,2.3-2.3,3.4h19.7c0.8-1.1,1.5-2.2,2.1-3.3c0,0,0,0,0,0H19z"/>
		<path d="M34.7,31.9L34.7,31.9c0.1,2.2-1.3,4.5-3.3,7.3c-0.1,0.2-0.3,0.5-0.6,0.7h10.6c-1-3.4-3.1-6.2-3.6-6.8
			c-0.9-1.3-1.9-2.3-2.5-3c-0.1-0.1-0.2-0.2-0.3-0.2c-0.9-0.9-1.8-1.5-2.5-1.8c-1.4-0.9-3.3-1.2-5.4-1.4
			C29.8,28.2,34.4,31.3,34.7,31.9z"/>
		<path d="M29.3,65.9H13.6c-0.1,1.2-0.1,2.2,0.1,3.2h12.7C27.3,68.1,28.3,67,29.3,65.9z"/>
		<path d="M25.9,45.7h15.9c0.1-0.6,0.1-1.2,0.1-1.8c0-0.4,0-0.9,0-1.3H28.7C27.8,43.5,26.9,44.6,25.9,45.7z"/>
		<path d="M15.2,60.1c-0.2,0.5-0.4,1-0.6,1.4c-0.2,0.6-0.4,1.2-0.5,1.7h17.6c0.9-1,1.8-2.1,2.7-3.1H15.2z"/>
		<path d="M22.2,74.8c0.5-0.9,1.2-2,2.1-3.1h-9.9c0.7,2.1,1.9,3.9,2.9,5.5c0.8,1.4,2,2.7,3.4,3.8c0,0,0,0,0,0c0.7,0.5,1.4,1,2.1,1.4
			c0,0,0,0,0,0c1.7,0.9,3.5,1.5,5.4,1.4c0,0,0.1,0,0.1,0c-2.8-1.4-5.6-3-7.3-4.5C20.9,78,21.4,76.4,22.2,74.8z"/>
		<path d="M23.7,48.3c-0.9,1.1-1.8,2.1-2.7,3.2h19c0.5-1,1-2,1.3-3.2H23.7z"/>
	</g>
	<g>
		<g>
			<linearGradient id="SVGID_2_" gradientUnits="userSpaceOnUse" x1="13.3174" y1="66.8693" x2="20.5788" y2="66.8693">
				<stop  offset="0" style="stop-color:#64200A"/>
				<stop  offset="0.5659" style="stop-color:#AA3D17"/>
				<stop  offset="0.591" style="stop-color:#B34019"/>
				<stop  offset="0.7004" style="stop-color:#D94B21"/>
				<stop  offset="0.7582" style="stop-color:#E94F24"/>
				<stop  offset="1" style="stop-color:#F8AF3D"/>
			</linearGradient>
			<path class="st2" d="M13.3,65.3c1.6,1.2,5.6,3,7.3,3.1c-2.1,0-4.1-0.7-6-1.8c0,0,0,0,0,0C14,66.3,13.6,65.8,13.3,65.3z"/>
			<linearGradient id="SVGID_3_" gradientUnits="userSpaceOnUse" x1="28.1999" y1="8.4428" x2="20.8338" y2="6.6814">
				<stop  offset="0" style="stop-color:#17401D"/>
				<stop  offset="0.3945" style="stop-color:#34A936"/>
				<stop  offset="0.6055" style="stop-color:#48AC33"/>
				<stop  offset="0.7308" style="stop-color:#4CAE40"/>
				<stop  offset="0.8571" style="stop-color:#33A939"/>
				<stop  offset="0.8729" style="stop-color:#38AA3D"/>
				<stop  offset="0.9176" style="stop-color:#42AC45"/>
				<stop  offset="1" style="stop-color:#0D8E4B"/>
			</linearGradient>
			<path class="st3" d="M26.7,7.7c0.7,0.4,1.2,1,1.7,1.7c-0.9-0.9-4.9-3-7.6-3.4C23.1,6.2,25.2,6.7,26.7,7.7z"/>
			<linearGradient id="SVGID_4_" gradientUnits="userSpaceOnUse" x1="12.6834" y1="65.867" x2="20.7323" y2="65.867">
				<stop  offset="0" style="stop-color:#191D31"/>
				<stop  offset="0.3297" style="stop-color:#312873"/>
				<stop  offset="0.3944" style="stop-color:#322A75"/>
				<stop  offset="0.4623" style="stop-color:#33307A"/>
				<stop  offset="0.5316" style="stop-color:#353B84"/>
				<stop  offset="0.6019" style="stop-color:#344C95"/>
				<stop  offset="0.6723" style="stop-color:#3164AD"/>
				<stop  offset="0.6758" style="stop-color:#3165AF"/>
				<stop  offset="0.8352" style="stop-color:#BECEE3"/>
				<stop  offset="0.8509" style="stop-color:#B6C4DB"/>
				<stop  offset="0.8757" style="stop-color:#A1ABC5"/>
				<stop  offset="0.9067" style="stop-color:#8385A3"/>
				<stop  offset="0.9424" style="stop-color:#5D587A"/>
				<stop  offset="0.9817" style="stop-color:#382C52"/>
				<stop  offset="1" style="stop-color:#281D44"/>
			</linearGradient>
			<path class="st4" d="M20.7,68.4c0,0-0.1,0-0.2,0c-1.6-0.1-5.7-1.9-7.3-3.1c-0.4-0.6-0.6-1.3-0.6-2C14.6,64.9,17.6,66.8,20.7,68.4
				z"/>
			<linearGradient id="SVGID_5_" gradientUnits="userSpaceOnUse" x1="29.4986" y1="10.5997" x2="19.9662" y2="6.7076">
				<stop  offset="0" style="stop-color:#191D31"/>
				<stop  offset="0.3297" style="stop-color:#4DA8DE"/>
				<stop  offset="0.5033" style="stop-color:#45A6DE"/>
				<stop  offset="0.6758" style="stop-color:#28A2DB"/>
				<stop  offset="0.8352" style="stop-color:#C2E2DA"/>
				<stop  offset="0.854" style="stop-color:#BCDBD9"/>
				<stop  offset="0.8838" style="stop-color:#AAC8D4"/>
				<stop  offset="0.9209" style="stop-color:#90AACA"/>
				<stop  offset="0.9633" style="stop-color:#6D81B9"/>
				<stop  offset="1" style="stop-color:#4F5CA6"/>
			</linearGradient>
			<path class="st5" d="M29,11.1c0,0.2,0.1,0.5,0.1,0.7c-0.3-0.7-5.3-4.2-8.3-5.8c2.7,0.4,6.8,2.5,7.6,3.4
				C28.6,9.9,28.9,10.4,29,11.1z"/>
			<linearGradient id="SVGID_6_" gradientUnits="userSpaceOnUse" x1="-0.7985" y1="47.1069" x2="38.6149" y2="19.5094">
				<stop  offset="0" style="stop-color:#991D15"/>
				<stop  offset="2.371607e-03" style="stop-color:#9A1F15"/>
				<stop  offset="7.066327e-02" style="stop-color:#B74C1A"/>
				<stop  offset="0.1344" style="stop-color:#D1731E"/>
				<stop  offset="0.1916" style="stop-color:#E69120"/>
				<stop  offset="0.2403" style="stop-color:#F3A422"/>
				<stop  offset="0.2747" style="stop-color:#F8AB22"/>
				<stop  offset="0.5495" style="stop-color:#FCD725"/>
				<stop  offset="0.6077" style="stop-color:#FCDF5D"/>
				<stop  offset="0.6791" style="stop-color:#FCE98C"/>
				<stop  offset="0.7434" style="stop-color:#FCF0AA"/>
				<stop  offset="0.7976" style="stop-color:#FBF4BB"/>
				<stop  offset="0.8352" style="stop-color:#FBF6C1"/>
				<stop  offset="0.8474" style="stop-color:#FBF2AF"/>
				<stop  offset="0.9231" style="stop-color:#FCD725"/>
				<stop  offset="0.9363" style="stop-color:#FACB24"/>
				<stop  offset="0.9625" style="stop-color:#F8B523"/>
				<stop  offset="0.9846" style="stop-color:#F7A722"/>
				<stop  offset="1" style="stop-color:#F6A122"/>
			</linearGradient>
			<path class="st6" d="M28.4,9.4c-0.4-0.7-1-1.3-1.7-1.7c0.7,0.4,1.8,1.1,2.8,2.1c0.1,0.1,0.2,0.2,0.3,0.3c1.1,1.2,2.1,2.8,2.2,4.7
				c0.1,2.6-0.7,4.9-2.5,7.9c-4.3,6.6-17.5,19.1-20.4,25c-3,6.1-3,8.7-0.5,13.2C6,56.6,2.8,52,6,43.5c2.7-7.1,16.5-20.1,19.3-23.8
				c2.3-3,3.9-5.5,3.8-7.9v0c0-0.2,0-0.5-0.1-0.7C28.9,10.4,28.6,9.9,28.4,9.4z"/>
			<linearGradient id="SVGID_7_" gradientUnits="userSpaceOnUse" x1="5.8037" y1="59.0248" x2="41.0255" y2="21.2541">
				<stop  offset="0" style="stop-color:#191D31"/>
				<stop  offset="0.3297" style="stop-color:#4DA8DE"/>
				<stop  offset="0.5033" style="stop-color:#45A6DE"/>
				<stop  offset="0.6758" style="stop-color:#28A2DB"/>
				<stop  offset="0.8352" style="stop-color:#C2E2DA"/>
				<stop  offset="0.854" style="stop-color:#BCDBD9"/>
				<stop  offset="0.8838" style="stop-color:#AAC8D4"/>
				<stop  offset="0.9209" style="stop-color:#90AACA"/>
				<stop  offset="0.9633" style="stop-color:#6D81B9"/>
				<stop  offset="1" style="stop-color:#4F5CA6"/>
			</linearGradient>
			<path class="st7" d="M32.5,13.3c0.7,0.9,4.7,6.3,4.4,11.8c-0.3,5.3-2.2,7.9-4.2,11.2c-4.7,7.8-15.8,16.6-18.7,22
				c-0.9,1.7-1.5,3.5-1.4,5c0,0.7,0.3,1.4,0.6,2c0.3,0.5,0.7,0.9,1.3,1.3c-0.8-0.5-1.6-1-2.4-1.6c0,0,0,0,0,0
				c-2.8-2.7-3.5-5.6-1.7-9.9c3-7.2,16-18.7,19.7-24.3c1.1-1.7,4.3-5.8,4.5-10.7C34.9,17.6,33.8,15.2,32.5,13.3z"/>
			<linearGradient id="SVGID_8_" gradientUnits="userSpaceOnUse" x1="1.877" y1="52.4488" x2="39.9232" y2="22.7239">
				<stop  offset="0" style="stop-color:#17401D"/>
				<stop  offset="0.3945" style="stop-color:#34A936"/>
				<stop  offset="0.6055" style="stop-color:#48AC33"/>
				<stop  offset="0.7308" style="stop-color:#4CAE40"/>
				<stop  offset="0.8571" style="stop-color:#33A939"/>
				<stop  offset="0.8729" style="stop-color:#38AA3D"/>
				<stop  offset="0.9176" style="stop-color:#42AC45"/>
				<stop  offset="1" style="stop-color:#0D8E4B"/>
			</linearGradient>
			<path class="st8" d="M32.5,13.3c1.3,1.9,2.3,4.2,2.2,6.9c-0.2,4.9-3.4,8.9-4.5,10.7C26.5,36.5,13.6,48,10.6,55.2
				c-1.8,4.3-1.2,7.2,1.7,9.9c-1.5-1.3-2.8-2.7-3.7-4.3C6.1,56.3,6.1,53.7,9,47.6c2.9-5.9,16.1-18.4,20.4-25
				c1.9-2.9,2.7-5.3,2.5-7.9c-0.1-2-1-3.5-2.2-4.7C30.4,10.7,31.5,11.9,32.5,13.3z"/>
		</g>
	</g>
	<path d="M29.4,65.8H13.7C13.6,67,13.6,68,13.8,69h12.7C27.4,68,28.4,66.9,29.4,65.8z"/>
	<g>
		<path class="st1" d="M59.8,55.3h-0.5h-0.6v3.3h-2.4v-10h3.8c2.5,0,4,1.3,4,3.4c0,1.4-0.7,2.4-1.9,2.9l2.3,3.8h-2.9L59.8,55.3z
			 M60.3,53.3c0.9,0,1.4-0.4,1.4-1.3c0-0.8-0.5-1.3-1.4-1.3h-1.5v2.6H60.3z"/>
		<path class="st1" d="M70.2,48.3c3.1,0,5.3,2.2,5.3,5.2c0,3.1-2.2,5.2-5.3,5.2c-3.1,0-5.3-2.2-5.3-5.2
			C64.9,50.5,67.2,48.3,70.2,48.3z M70.2,56.5c1.7,0,2.9-1.1,2.9-2.9c0-1.8-1.2-3-2.9-3c-1.7,0-2.9,1.1-2.9,3
			C67.4,55.3,68.6,56.5,70.2,56.5z"/>
		<path class="st1" d="M85.4,54.1c0,3-1.7,4.7-4.4,4.7c-2.6,0-4.4-1.6-4.4-4.7v-5.6h2.4V54c0,1.7,0.7,2.5,2,2.5c1.3,0,2-0.7,2-2.5
			v-5.5h2.4V54.1z"/>
		<path class="st1" d="M91.9,50.8v7.8h-2.4v-7.8h-3.1v-2.2H95v2.2H91.9z"/>
		<path class="st1" d="M96.1,48.5h7.3v2.2h-4.9v1.7h3.6v2h-3.6v1.8h5v2.2h-7.4V48.5z"/>
		<path class="st1" d="M43.8,61.6c3,0,5.3,2,5.3,5.1c0,3-2.3,5-5.3,5h-4.3v-10H43.8z M43.6,69.4c1.5,0,3-0.8,3-2.7
			c0-2-1.5-2.8-3-2.8h-1.7v5.6H43.6z"/>
		<path class="st1" d="M59,67.1c0,3-1.7,4.7-4.4,4.7c-2.6,0-4.4-1.6-4.4-4.7v-5.6h2.4v5.5c0,1.7,0.7,2.5,2,2.5c1.3,0,2-0.7,2-2.5
			v-5.5H59V67.1z"/>
		<path class="st1" d="M67.3,68.3h-0.5h-0.6v3.3h-2.4v-10h3.8c2.5,0,4,1.3,4,3.4c0,1.4-0.7,2.4-1.9,2.9l2.3,3.8h-2.9L67.3,68.3z
			 M67.8,66.4c0.9,0,1.4-0.4,1.4-1.3c0-0.8-0.5-1.3-1.4-1.3h-1.5v2.6H67.8z"/>
		<path class="st1" d="M79.2,67.7h-3.9v3.9H73v-10h2.4v3.8h3.9v-3.8h2.4v10h-2.4V67.7z"/>
		<path class="st1" d="M91.8,67.1c0,3-1.7,4.7-4.4,4.7c-2.6,0-4.4-1.6-4.4-4.7v-5.6h2.4v5.5c0,1.7,0.7,2.5,2,2.5c1.3,0,2-0.7,2-2.5
			v-5.5h2.4V67.1z"/>
		<path class="st1" d="M100.9,69.2c0-2.4,0-3.6,0-3.6h0c0,0-0.5,0.9-1,1.8l-1,1.8h-1.3l-1-1.7c-0.5-0.9-1-1.8-1-1.8h0
			c0,0,0,1.2,0,3.6v2.5h-2.4v-10h2.6l2.5,4.5h0l2.5-4.5h2.5v10h-2.4V69.2z"/>
	</g>
	<g>
		<g>
			<path class="st9" d="M34.1,77.3c2.3,0,4.1,1.6,4.1,3.9c0,2.4-1.8,3.9-4.1,3.9h-3.3v-7.8H34.1z M34,83.3c1.2,0,2.3-0.6,2.3-2.1
				c0-1.5-1.2-2.2-2.3-2.2h-1.3v4.3H34z"/>
			<path class="st9" d="M38.9,77.3h5.7V79h-3.8v1.3h2.8v1.6h-2.8v1.4h3.9V85h-5.7V77.3z"/>
			<path class="st9" d="M47,82.6c0.2,0.6,0.7,0.9,1.5,0.9c0.7,0,1.1-0.2,1.1-0.7c0-0.7-0.9-0.7-1.9-0.9c-1.1-0.3-2.4-0.7-2.4-2.4
				c0-1.6,1.2-2.4,2.9-2.4c1.6,0,2.7,0.6,3.2,2l-1.8,0.5c-0.2-0.6-0.6-0.9-1.4-0.9c-0.7,0-1,0.3-1,0.7c0,0.7,0.7,0.8,1.8,1
				c1.1,0.2,2.4,0.7,2.4,2.4c0,1.6-1.1,2.4-3,2.4c-1.4,0-2.9-0.4-3.3-2.1L47,82.6z"/>
			<path class="st9" d="M56.3,79v6h-1.9v-6h-2.4v-1.7h6.6V79H56.3z"/>
			<path class="st9" d="M59.5,77.3h1.9V85h-1.9V77.3z"/>
			<path class="st9" d="M64.3,80.4L64.3,80.4c0,0,0,1,0,2V85h-1.9v-7.8h1.9l3.3,4.6h0c0,0,0-1,0-1.9v-2.7h1.9V85h-1.9L64.3,80.4z"/>
			<path class="st9" d="M72.6,83.8L72.1,85h-2l3-7.8h2.1l3,7.8h-2l-0.5-1.3H72.6z M74.7,80.5c-0.2-0.6-0.4-1.1-0.4-1.1h0
				c0,0-0.2,0.5-0.4,1.1l-0.6,1.6h2L74.7,80.5z"/>
			<path class="st9" d="M81.7,79v6h-1.9v-6h-2.4v-1.7H84V79H81.7z"/>
			<path class="st9" d="M84.8,77.3h1.9V85h-1.9V77.3z"/>
			<path class="st9" d="M91.6,77.1c2.4,0,4.1,1.7,4.1,4c0,2.4-1.7,4-4.1,4c-2.4,0-4.1-1.7-4.1-4C87.5,78.8,89.2,77.1,91.6,77.1z
				 M91.6,83.4c1.3,0,2.2-0.9,2.2-2.3c0-1.4-0.9-2.3-2.2-2.3c-1.3,0-2.2,0.9-2.2,2.3C89.4,82.5,90.3,83.4,91.6,83.4z"/>
			<path class="st9" d="M98.3,80.4L98.3,80.4c0,0,0,1,0,2V85h-1.9v-7.8h1.9l3.3,4.6h0c0,0,0-1,0-1.9v-2.7h1.9V85h-1.9L98.3,80.4z"/>
			<path class="st9" d="M36.1,96.4c0-0.4,0-0.5,0-0.5h0c-0.4,0.4-1.3,0.7-2.2,0.7c-2.2,0-4-1.6-4-4.1c0-2.4,1.7-4,4-4
				c1.8,0,3.1,1,3.6,2.2l-1.8,0.5c-0.3-0.5-0.9-1-1.9-1c-1.3,0-2.1,0.9-2.1,2.3c0,1.4,0.9,2.3,2.3,2.3c1.1,0,1.7-0.5,2-0.8v-0.4h-2
				v-1.7h3.7v4.5H36.1z"/>
			<path class="st9" d="M45.4,92.9c0,2.3-1.4,3.6-3.4,3.6c-2,0-3.4-1.3-3.4-3.6v-4.3h1.9v4.3c0,1.3,0.5,1.9,1.5,1.9
				c1,0,1.5-0.6,1.5-1.9v-4.3h1.8V92.9z"/>
			<path class="st9" d="M47.9,95.1l-0.5,1.3h-2l3-7.8h2.1l3,7.8h-2l-0.5-1.3H47.9z M50,91.9c-0.2-0.6-0.4-1.1-0.4-1.1h0
				c0,0-0.2,0.5-0.4,1.1l-0.6,1.6h2L50,91.9z"/>
			<path class="st9" d="M57.5,88.6c2.3,0,4.1,1.6,4.1,3.9c0,2.4-1.8,3.9-4.1,3.9h-3.3v-7.8H57.5z M57.4,94.7c1.2,0,2.3-0.6,2.3-2.1
				c0-1.5-1.2-2.2-2.3-2.2h-1.3v4.3H57.4z"/>
			<path class="st9" d="M62.4,88.6h5.7v1.7h-3.8v1.3h2.8v1.6h-2.8v1.4h3.9v1.7h-5.7V88.6z"/>
			<path class="st9" d="M69,88.6h1.9v6h3.5v1.7H69V88.6z"/>
			<path class="st9" d="M78.6,88.5c2.4,0,4.1,1.7,4.1,4c0,2.4-1.7,4-4.1,4c-2.4,0-4.1-1.7-4.1-4C74.5,90.1,76.2,88.5,78.6,88.5z
				 M78.6,94.8c1.3,0,2.2-0.9,2.2-2.3c0-1.4-0.9-2.3-2.2-2.3c-1.3,0-2.2,0.9-2.2,2.3C76.4,93.9,77.3,94.8,78.6,94.8z"/>
			<path class="st9" d="M90.3,92.9c0,2.3-1.4,3.6-3.4,3.6c-2,0-3.4-1.3-3.4-3.6v-4.3h1.9v4.3c0,1.3,0.5,1.9,1.5,1.9
				c1,0,1.5-0.6,1.5-1.9v-4.3h1.8V92.9z"/>
			<path class="st9" d="M94.2,88.6c1.9,0,3.1,1,3.1,2.7c0,1.6-1.2,2.7-3.1,2.7h-1v2.4h-1.9v-7.8H94.2z M94.3,92.3
				c0.8,0,1.1-0.4,1.1-1c0-0.6-0.4-1-1.1-1h-1.1v2H94.3z"/>
			<path class="st9" d="M98,88.6h5.7v1.7h-3.8v1.3h2.8v1.6h-2.8v1.4h3.9v1.7H98V88.6z"/>
		</g>
	</g>
	<g>
		<path class="st1" d="M6.5,103c0,0.4,0.4,0.6,0.9,0.6c0.4,0,0.7-0.2,0.7-0.6c0-0.5-0.5-0.5-1.2-0.7c-0.5-0.1-1.1-0.3-1.1-1
			c0-0.7,0.5-1.1,1.4-1.1c0.8,0,1.3,0.3,1.5,0.9l-0.6,0.2c-0.1-0.3-0.4-0.5-0.8-0.5c-0.5,0-0.7,0.2-0.7,0.5c0,0.4,0.4,0.5,1,0.6
			c0.5,0.1,1.3,0.3,1.3,1.2c0,0.8-0.6,1.1-1.5,1.1c-0.6,0-1.4-0.2-1.6-1L6.5,103z"/>
		<path class="st1" d="M11.2,103.2l-0.3,0.9h-0.7l1.5-3.8h0.9l1.5,3.8h-0.7l-0.3-0.9H11.2z M12.4,101.9c-0.2-0.7-0.3-1-0.3-1h0
			l-0.4,1l-0.3,0.7h1.3L12.4,101.9z"/>
		<path class="st1" d="M15.4,100.3h0.7v3.8h-0.7V100.3z"/>
		<path class="st1" d="M20.6,104.1l-1.9-2.7h0c0,0,0,0.4,0,0.9v1.9h-0.7v-3.8h0.7l1.9,2.7h0c0,0,0-0.4,0-0.8v-1.9h0.7v3.8H20.6z"/>
		<path class="st1" d="M24.9,101v3.1h-0.7V101h-1.3v-0.7h3.3v0.7H24.9z"/>
		<path class="st1" d="M27.6,102.5v-0.6h2.6v0.6H27.6z"/>
		<path class="st1" d="M35.3,102.3l0-0.9h0l-1,1.8h-0.5l-1-1.9h0c0,0,0,0.6,0,0.9v1.9h-0.7v-3.8h0.9l0.7,1.3
			c0.2,0.4,0.4,0.7,0.4,0.7h0c0,0,0.2-0.3,0.4-0.7l0.7-1.3h0.8v3.8h-0.7V102.3z"/>
		<path class="st1" d="M38.6,103.2l-0.3,0.9h-0.7l1.5-3.8h0.9l1.5,3.8h-0.7l-0.3-0.9H38.6z M39.8,101.9c-0.2-0.7-0.3-1-0.3-1h0
			l-0.4,1l-0.3,0.7h1.3L39.8,101.9z"/>
		<path class="st1" d="M42.8,100.3h0.7v3.1h1.9v0.7h-2.6V100.3z"/>
		<path class="st1" d="M48.5,100.2c1.2,0,2,0.8,2,2c0,1.2-0.9,2-2,2c-1.1,0-2-0.8-2-2C46.5,101,47.4,100.2,48.5,100.2z M48.5,103.5
			c0.7,0,1.3-0.5,1.3-1.3c0-0.8-0.6-1.3-1.3-1.3c-0.7,0-1.3,0.5-1.3,1.3C47.2,103,47.8,103.5,48.5,103.5z"/>
		<path class="st1" d="M60.3,104.1c0-0.4,0-0.4,0-0.5h0c-0.2,0.2-0.6,0.6-1.3,0.6c-1.1,0-2-0.8-2-2c0-1.1,0.9-2,2-2
			c0.8,0,1.5,0.3,1.8,1.1l-0.7,0.2c-0.2-0.3-0.6-0.7-1.2-0.7c-0.8,0-1.3,0.5-1.3,1.3c0,0.8,0.5,1.3,1.4,1.3c0.5,0,1-0.3,1.2-0.5
			v-0.4h-1.1V102h1.7v2.1H60.3z"/>
		<path class="st1" d="M65.9,102.4c0,1.2-0.6,1.8-1.7,1.8c-1,0-1.7-0.6-1.7-1.8v-2.1h0.7v2.2c0,0.7,0.3,1.1,1,1.1c0.6,0,1-0.3,1-1.1
			v-2.2h0.7V102.4z"/>
		<path class="st1" d="M68.1,103.2l-0.3,0.9h-0.7l1.5-3.8h0.9l1.5,3.8h-0.7l-0.3-0.9H68.1z M69.3,101.9c-0.2-0.7-0.3-1-0.3-1h0
			l-0.4,1l-0.3,0.7h1.3L69.3,101.9z"/>
		<path class="st1" d="M73.8,100.3c1.2,0,2.1,0.7,2.1,1.9c0,1.2-0.9,1.9-2.1,1.9h-1.4v-3.8H73.8z M73.8,103.4c0.8,0,1.4-0.4,1.4-1.2
			c0-0.8-0.6-1.3-1.4-1.3h-0.7v2.5H73.8z"/>
		<path class="st1" d="M77.4,100.3h2.8v0.7h-2.1v0.9h1.6v0.6h-1.6v1h2.1v0.7h-2.8V100.3z"/>
		<path class="st1" d="M81.9,100.3h0.7v3.1h1.9v0.7h-2.6V100.3z"/>
		<path class="st1" d="M87.6,100.2c1.2,0,2,0.8,2,2c0,1.2-0.9,2-2,2c-1.2,0-2-0.8-2-2C85.6,101,86.5,100.2,87.6,100.2z M87.6,103.5
			c0.7,0,1.3-0.5,1.3-1.3c0-0.8-0.6-1.3-1.3-1.3c-0.7,0-1.3,0.5-1.3,1.3C86.3,103,86.9,103.5,87.6,103.5z"/>
		<path class="st1" d="M94.5,102.4c0,1.2-0.6,1.8-1.7,1.8c-1,0-1.7-0.6-1.7-1.8v-2.1h0.7v2.2c0,0.7,0.3,1.1,1,1.1c0.6,0,1-0.3,1-1.1
			v-2.2h0.7V102.4z"/>
		<path class="st1" d="M97.6,100.3c1,0,1.5,0.5,1.5,1.3c0,0.8-0.6,1.2-1.5,1.2h-0.6v1.3h-0.7v-3.8H97.6z M97.6,102.2
			c0.5,0,0.8-0.3,0.8-0.6c0-0.4-0.3-0.6-0.8-0.6h-0.7v1.3H97.6z"/>
		<path class="st1" d="M100.6,100.3h2.8v0.7h-2.1v0.9h1.6v0.6h-1.6v1h2.1v0.7h-2.8V100.3z"/>
	</g>
	<g>
		<path class="st1" d="M52.9,104.2l-0.6-0.1l2.2-3.6l0.6,0.1L52.9,104.2z"/>
	</g>
</g>
</svg>
